<svg width="18" height="9" viewBox="0 0 18 9" fill="none" xmlns="http://www.w3.org/2000/svg">
<path d="M1.01367 0.181641H4.28907C4.45703 0.181641 4.54102 0.242188 4.54102 0.363282C4.54102 0.417964 4.50196 0.517574 4.42383 0.662114C4.34571 0.806644 4.25391 0.925784 4.14844 1.01953C4.0586 1.10156 3.91407 1.14257 3.71485 1.14257H0.234376C0.175782 1.14257 0.132813 1.14062 0.105469 1.13672C0.078126 1.1289 0.052735 1.11132 0.029297 1.08398C0.00976599 1.05664 0 1.01757 0 0.966794C0 0.822264 0.113282 0.656254 0.339844 0.468754C0.570313 0.277344 0.794918 0.181641 1.01367 0.181641ZM0.00586 8.20898V5.38476C0.00586 5.24414 0.052735 5.15039 0.146485 5.10351C0.244141 5.05664 0.394532 5.0332 0.597657 5.0332C0.812498 5.0332 0.962888 5.05664 1.04883 5.10351C1.13867 5.15039 1.1836 5.24414 1.1836 5.38476V7.58789C1.1836 7.77929 1.14258 7.92187 1.06055 8.01562C0.962888 8.13281 0.824218 8.23632 0.644532 8.32617C0.46875 8.41601 0.324219 8.46093 0.210938 8.46093C0.074219 8.46093 0.00586 8.37695 0.00586 8.20898ZM0.00586 4.4414V1.8457C0.00586 1.70507 0.052735 1.61132 0.146485 1.56445C0.244141 1.51757 0.394532 1.49414 0.597657 1.49414C0.816408 1.49414 0.968748 1.51757 1.05469 1.56445C1.14063 1.60742 1.1836 1.70117 1.1836 1.8457V3.48046C1.1836 3.64062 1.26367 3.7207 1.42383 3.7207H3.8086C3.97657 3.7207 4.06055 3.78125 4.06055 3.90234C4.06055 3.95703 4.02149 4.05859 3.94336 4.20703C3.86524 4.35156 3.77344 4.4707 3.66797 4.56445C3.57813 4.64257 3.4336 4.68164 3.23438 4.68164H0.246094C0.085938 4.68164 0.00586 4.60156 0.00586 4.4414ZM11.9707 4.03711C11.9707 4.56445 11.9434 5.03515 11.8887 5.44922C11.834 5.86328 11.7539 6.23242 11.6484 6.55664C11.5469 6.87695 11.4199 7.15625 11.2676 7.39453C11.1192 7.6289 10.9473 7.83007 10.752 7.99804C10.5176 8.20507 10.3164 8.30859 10.1484 8.30859C10.0664 8.30859 10.0254 8.25976 10.0254 8.16211C10.0254 8.13086 10.0547 8.07812 10.1133 8.0039C10.1719 7.92578 10.2285 7.83398 10.2832 7.72851C10.5957 7.13867 10.752 6.24414 10.752 5.04492C10.752 4.83007 10.752 4.58007 10.752 4.29492C10.752 4.00976 10.7324 3.71679 10.6934 3.41601C10.6582 3.11132 10.5957 2.8125 10.5059 2.51953C10.416 2.22656 10.2793 1.96484 10.0957 1.73437C9.91209 1.5039 9.67188 1.31836 9.375 1.17773C9.08203 1.0332 8.71485 0.960934 8.27344 0.960934C7.92969 0.960934 7.59375 1.02539 7.26563 1.15429C6.9375 1.2832 6.61133 1.47461 6.28711 1.72851L6.09961 1.875C6.06446 1.90625 6.02539 1.93359 5.98242 1.95703C5.93946 1.98046 5.90821 1.99218 5.88867 1.99218C5.80664 1.99218 5.76563 1.95312 5.76563 1.875C5.76563 1.7539 5.84961 1.58593 6.01758 1.37109C6.36914 0.921874 6.78321 0.582034 7.25977 0.351563C7.73633 0.117188 8.23828 0 8.76563 0C9.29688 0 9.76169 0.080078 10.1602 0.240235C10.5625 0.400391 10.8965 0.646484 11.1621 0.978514C11.4317 1.30664 11.6328 1.72461 11.7656 2.23242C11.9024 2.74023 11.9707 3.34179 11.9707 4.03711ZM6.95508 2.19726C6.95508 2.23242 6.93555 2.35546 6.89649 2.5664C6.85742 2.77343 6.81836 3.04882 6.7793 3.39257C6.74024 3.73632 6.72071 4.08984 6.72071 4.45312C6.72071 4.73437 6.72852 4.99023 6.74414 5.2207C6.76367 5.45117 6.79492 5.69336 6.83789 5.94726C6.88086 6.20117 6.94727 6.42382 7.03711 6.61523C7.12696 6.80273 7.23828 6.97656 7.3711 7.13672C7.50391 7.29296 7.67383 7.41406 7.88086 7.5C8.08789 7.58203 8.32422 7.62304 8.58985 7.62304C8.82422 7.62304 9.03125 7.59961 9.21094 7.55273C9.39063 7.50195 9.5293 7.45312 9.62696 7.40625C9.72461 7.35937 9.79099 7.33593 9.82619 7.33593C9.91209 7.33593 9.95509 7.38281 9.95509 7.47656C9.95509 7.57422 9.91799 7.68359 9.84379 7.80468C9.76949 7.92578 9.66602 8.04687 9.53321 8.16796C9.40039 8.28515 9.22071 8.38281 8.99414 8.46093C8.76758 8.54296 8.52344 8.58398 8.26172 8.58398C7.73438 8.58398 7.28907 8.49804 6.92578 8.32617C6.5625 8.15039 6.27735 7.88672 6.07031 7.53515C5.86719 7.18359 5.72071 6.77734 5.63086 6.3164C5.54492 5.85546 5.50196 5.30664 5.50196 4.66992C5.50196 3.70507 5.59961 3.03711 5.79492 2.66601C5.9043 2.46289 6.06055 2.29882 6.26367 2.17382C6.4668 2.04492 6.63672 1.98046 6.77344 1.98046C6.89453 1.98046 6.95508 2.05273 6.95508 2.19726ZM14.3731 0.181641H17.6484C17.8164 0.181641 17.9004 0.242188 17.9004 0.363282C17.9004 0.417964 17.8613 0.517574 17.7832 0.662114C17.7051 0.806644 17.6133 0.925784 17.5078 1.01953C17.418 1.10156 17.2734 1.14257 17.0742 1.14257H13.5938C13.5352 1.14257 13.4922 1.14062 13.4649 1.13672C13.4375 1.1289 13.4121 1.11132 13.3887 1.08398C13.3692 1.05664 13.3594 1.01757 13.3594 0.966794C13.3594 0.822264 13.4727 0.656254 13.6992 0.468754C13.9297 0.277344 14.1543 0.181641 14.3731 0.181641ZM13.3652 8.20898V5.38476C13.3652 5.24414 13.4121 5.15039 13.5059 5.10351C13.6035 5.05664 13.7539 5.0332 13.957 5.0332C14.1719 5.0332 14.3223 5.05664 14.4082 5.10351C14.4981 5.15039 14.543 5.24414 14.543 5.38476V7.58789C14.543 7.77929 14.502 7.92187 14.4199 8.01562C14.3223 8.13281 14.1836 8.23632 14.0039 8.32617C13.8281 8.41601 13.6836 8.46093 13.5703 8.46093C13.4336 8.46093 13.3652 8.37695 13.3652 8.20898ZM13.3652 4.4414V1.8457C13.3652 1.70507 13.4121 1.61132 13.5059 1.56445C13.6035 1.51757 13.7539 1.49414 13.957 1.49414C14.1758 1.49414 14.3281 1.51757 14.4141 1.56445C14.5 1.60742 14.543 1.70117 14.543 1.8457V3.48046C14.543 3.64062 14.6231 3.7207 14.7832 3.7207H17.168C17.336 3.7207 17.4199 3.78125 17.4199 3.90234C17.4199 3.95703 17.3809 4.05859 17.3027 4.20703C17.2246 4.35156 17.1328 4.4707 17.0274 4.56445C16.9375 4.64257 16.793 4.68164 16.5938 4.68164H13.6055C13.4453 4.68164 13.3652 4.60156 13.3652 4.4414Z" fill="white"/>
</svg>
