<svg width="41" height="13" viewBox="0 0 41 13" fill="none" xmlns="http://www.w3.org/2000/svg">
<path d="M1.01367 0.181641H4.28907C4.45703 0.181641 4.54102 0.242188 4.54102 0.363282C4.54102 0.417964 4.50196 0.517574 4.42383 0.662114C4.34571 0.806644 4.25391 0.925784 4.14844 1.01953C4.0586 1.10156 3.91407 1.14257 3.71485 1.14257H0.234376C0.175782 1.14257 0.132813 1.14062 0.105469 1.13672C0.078126 1.1289 0.052735 1.11132 0.029297 1.08398C0.00976599 1.05664 0 1.01757 0 0.966794C0 0.822264 0.113282 0.656254 0.339844 0.468754C0.570313 0.277344 0.794918 0.181641 1.01367 0.181641ZM0.00586 8.20898V5.38476C0.00586 5.24414 0.052735 5.15039 0.146485 5.10351C0.244141 5.05664 0.394532 5.0332 0.597657 5.0332C0.812498 5.0332 0.962888 5.05664 1.04883 5.10351C1.13867 5.15039 1.1836 5.24414 1.1836 5.38476V7.58789C1.1836 7.77929 1.14258 7.92187 1.06055 8.01562C0.962888 8.13281 0.824218 8.23632 0.644532 8.32617C0.46875 8.41601 0.324219 8.46093 0.210938 8.46093C0.074219 8.46093 0.00586 8.37695 0.00586 8.20898ZM0.00586 4.4414V1.8457C0.00586 1.70507 0.052735 1.61132 0.146485 1.56445C0.244141 1.51757 0.394532 1.49414 0.597657 1.49414C0.816408 1.49414 0.968748 1.51757 1.05469 1.56445C1.14063 1.60742 1.1836 1.70117 1.1836 1.8457V3.48046C1.1836 3.64062 1.26367 3.7207 1.42383 3.7207H3.8086C3.97657 3.7207 4.06055 3.78125 4.06055 3.90234C4.06055 3.95703 4.02149 4.05859 3.94336 4.20703C3.86524 4.35156 3.77344 4.4707 3.66797 4.56445C3.57813 4.64257 3.4336 4.68164 3.23438 4.68164H0.246094C0.085938 4.68164 0.00586 4.60156 0.00586 4.4414ZM11.9707 4.03711C11.9707 4.56445 11.9434 5.03515 11.8887 5.44922C11.834 5.86328 11.7539 6.23242 11.6484 6.55664C11.5469 6.87695 11.4199 7.15625 11.2676 7.39453C11.1192 7.6289 10.9473 7.83007 10.752 7.99804C10.5176 8.20507 10.3164 8.30859 10.1484 8.30859C10.0664 8.30859 10.0254 8.25976 10.0254 8.16211C10.0254 8.13086 10.0547 8.07812 10.1133 8.0039C10.1719 7.92578 10.2285 7.83398 10.2832 7.72851C10.5957 7.13867 10.752 6.24414 10.752 5.04492C10.752 4.83007 10.752 4.58007 10.752 4.29492C10.752 4.00976 10.7324 3.71679 10.6934 3.41601C10.6582 3.11132 10.5957 2.8125 10.5059 2.51953C10.416 2.22656 10.2793 1.96484 10.0957 1.73437C9.91209 1.5039 9.67188 1.31836 9.375 1.17773C9.08203 1.0332 8.71485 0.960934 8.27344 0.960934C7.92969 0.960934 7.59375 1.02539 7.26563 1.15429C6.9375 1.2832 6.61133 1.47461 6.28711 1.72851L6.09961 1.875C6.06446 1.90625 6.02539 1.93359 5.98242 1.95703C5.93946 1.98046 5.90821 1.99218 5.88867 1.99218C5.80664 1.99218 5.76563 1.95312 5.76563 1.875C5.76563 1.7539 5.84961 1.58593 6.01758 1.37109C6.36914 0.921874 6.78321 0.582034 7.25977 0.351563C7.73633 0.117188 8.23828 0 8.76563 0C9.29688 0 9.76169 0.080078 10.1602 0.240235C10.5625 0.400391 10.8965 0.646484 11.1621 0.978514C11.4317 1.30664 11.6328 1.72461 11.7656 2.23242C11.9024 2.74023 11.9707 3.34179 11.9707 4.03711ZM6.95508 2.19726C6.95508 2.23242 6.93555 2.35546 6.89649 2.5664C6.85742 2.77343 6.81836 3.04882 6.7793 3.39257C6.74024 3.73632 6.72071 4.08984 6.72071 4.45312C6.72071 4.73437 6.72852 4.99023 6.74414 5.2207C6.76367 5.45117 6.79492 5.69336 6.83789 5.94726C6.88086 6.20117 6.94727 6.42382 7.03711 6.61523C7.12696 6.80273 7.23828 6.97656 7.3711 7.13672C7.50391 7.29296 7.67383 7.41406 7.88086 7.5C8.08789 7.58203 8.32422 7.62304 8.58985 7.62304C8.82422 7.62304 9.03125 7.59961 9.21094 7.55273C9.39063 7.50195 9.5293 7.45312 9.62696 7.40625C9.72461 7.35937 9.79099 7.33593 9.82619 7.33593C9.91209 7.33593 9.95509 7.38281 9.95509 7.47656C9.95509 7.57422 9.91799 7.68359 9.84379 7.80468C9.76949 7.92578 9.66602 8.04687 9.53321 8.16796C9.40039 8.28515 9.22071 8.38281 8.99414 8.46093C8.76758 8.54296 8.52344 8.58398 8.26172 8.58398C7.73438 8.58398 7.28907 8.49804 6.92578 8.32617C6.5625 8.15039 6.27735 7.88672 6.07031 7.53515C5.86719 7.18359 5.72071 6.77734 5.63086 6.3164C5.54492 5.85546 5.50196 5.30664 5.50196 4.66992C5.50196 3.70507 5.59961 3.03711 5.79492 2.66601C5.9043 2.46289 6.06055 2.29882 6.26367 2.17382C6.4668 2.04492 6.63672 1.98046 6.77344 1.98046C6.89453 1.98046 6.95508 2.05273 6.95508 2.19726ZM14.3731 0.181641H17.6484C17.8164 0.181641 17.9004 0.242188 17.9004 0.363282C17.9004 0.417964 17.8613 0.517574 17.7832 0.662114C17.7051 0.806644 17.6133 0.925784 17.5078 1.01953C17.418 1.10156 17.2734 1.14257 17.0742 1.14257H13.5938C13.5352 1.14257 13.4922 1.14062 13.4649 1.13672C13.4375 1.1289 13.4121 1.11132 13.3887 1.08398C13.3692 1.05664 13.3594 1.01757 13.3594 0.966794C13.3594 0.822264 13.4727 0.656254 13.6992 0.468754C13.9297 0.277344 14.1543 0.181641 14.3731 0.181641ZM13.3652 8.20898V5.38476C13.3652 5.24414 13.4121 5.15039 13.5059 5.10351C13.6035 5.05664 13.7539 5.0332 13.957 5.0332C14.1719 5.0332 14.3223 5.05664 14.4082 5.10351C14.4981 5.15039 14.543 5.24414 14.543 5.38476V7.58789C14.543 7.77929 14.502 7.92187 14.4199 8.01562C14.3223 8.13281 14.1836 8.23632 14.0039 8.32617C13.8281 8.41601 13.6836 8.46093 13.5703 8.46093C13.4336 8.46093 13.3652 8.37695 13.3652 8.20898ZM13.3652 4.4414V1.8457C13.3652 1.70507 13.4121 1.61132 13.5059 1.56445C13.6035 1.51757 13.7539 1.49414 13.957 1.49414C14.1758 1.49414 14.3281 1.51757 14.4141 1.56445C14.5 1.60742 14.543 1.70117 14.543 1.8457V3.48046C14.543 3.64062 14.6231 3.7207 14.7832 3.7207H17.168C17.336 3.7207 17.4199 3.78125 17.4199 3.90234C17.4199 3.95703 17.3809 4.05859 17.3027 4.20703C17.2246 4.35156 17.1328 4.4707 17.0274 4.56445C16.9375 4.64257 16.793 4.68164 16.5938 4.68164H13.6055C13.4453 4.68164 13.3652 4.60156 13.3652 4.4414Z" fill="white"/>
<path d="M1.08252 12.0308C0.868652 12.0308 0.689941 11.9839 0.546387 11.8901C0.403809 11.7964 0.296387 11.668 0.224121 11.5049C0.152832 11.3418 0.117188 11.1567 0.117188 10.9497V10.9189C0.117188 10.71 0.154785 10.5244 0.22998 10.3623C0.305176 10.1992 0.413086 10.0708 0.553711 9.97705C0.694336 9.8833 0.862305 9.83643 1.05762 9.83643C1.19531 9.83643 1.32129 9.85791 1.43555 9.90088C1.5498 9.94385 1.64453 9.99854 1.71973 10.0649V10.5249H1.48975L1.45898 10.188C1.36035 10.1128 1.22607 10.0752 1.05615 10.0752C0.916504 10.0752 0.79834 10.1113 0.70166 10.1836C0.60498 10.2549 0.531738 10.3535 0.481934 10.4795C0.432129 10.6055 0.407227 10.751 0.407227 10.916V10.9497C0.407227 11.2183 0.466309 11.4268 0.584473 11.5752C0.702637 11.7227 0.87207 11.7964 1.09277 11.7964C1.16113 11.7964 1.22803 11.7881 1.29346 11.7715C1.35889 11.7549 1.41309 11.7334 1.45605 11.707L1.48828 11.4097H1.71387V11.8726C1.63379 11.9224 1.53809 11.9614 1.42676 11.9897C1.31543 12.0171 1.20068 12.0308 1.08252 12.0308ZM1.99512 12V11.8154L2.23389 11.7744V10.6421L1.99512 10.6011V10.415H2.4917L2.5166 10.6172L2.51953 10.645C2.56445 10.564 2.61963 10.5005 2.68506 10.4546C2.75146 10.4087 2.82715 10.3857 2.91211 10.3857C2.94238 10.3857 2.97314 10.3887 3.00439 10.3945C3.03662 10.3994 3.05957 10.4043 3.07324 10.4092L3.03516 10.6772L2.83447 10.6655C2.7583 10.6606 2.69434 10.6782 2.64258 10.7183C2.59082 10.7573 2.55078 10.8101 2.52246 10.8765V11.7744L2.76123 11.8154V12H1.99512ZM3.94189 12.0308C3.79541 12.0308 3.66797 11.9976 3.55957 11.9312C3.45117 11.8638 3.36719 11.7705 3.30762 11.6514C3.24902 11.5322 3.21973 11.3945 3.21973 11.2383V11.1738C3.21973 11.0234 3.25049 10.8892 3.31201 10.771C3.37451 10.6519 3.45703 10.5581 3.55957 10.4897C3.66309 10.4204 3.77588 10.3857 3.89795 10.3857C4.11084 10.3857 4.27197 10.4502 4.38135 10.5791C4.4917 10.708 4.54688 10.8799 4.54688 11.0947V11.2749H3.51855L3.51416 11.2822C3.51709 11.4346 3.55566 11.5601 3.62988 11.6587C3.7041 11.7563 3.80811 11.8052 3.94189 11.8052C4.03955 11.8052 4.125 11.7915 4.19824 11.7642C4.27246 11.7358 4.33643 11.6973 4.39014 11.6484L4.50293 11.8359C4.44629 11.8906 4.37109 11.937 4.27734 11.9751C4.18457 12.0122 4.07275 12.0308 3.94189 12.0308ZM3.52734 11.0493H4.2583V11.0112C4.2583 10.8979 4.22803 10.8032 4.16748 10.7271C4.10693 10.6509 4.01709 10.6128 3.89795 10.6128C3.80127 10.6128 3.71875 10.6538 3.65039 10.7358C3.58203 10.8169 3.54004 10.9189 3.52441 11.042L3.52734 11.0493ZM5.30859 12.0308C5.14355 12.0308 5.01807 11.9907 4.93213 11.9106C4.84619 11.8296 4.80322 11.7158 4.80322 11.5693C4.80322 11.4189 4.86475 11.2983 4.98779 11.2075C5.11084 11.1157 5.28174 11.0698 5.50049 11.0698H5.7832V10.9146C5.7832 10.8188 5.75391 10.7446 5.69531 10.6919C5.6377 10.6392 5.55615 10.6128 5.45068 10.6128C5.38428 10.6128 5.32666 10.6211 5.27783 10.6377C5.229 10.6533 5.18457 10.6753 5.14453 10.7036L5.11377 10.9248H4.89111V10.5615C5.03467 10.4443 5.22266 10.3857 5.45508 10.3857C5.64746 10.3857 5.79834 10.4316 5.90771 10.5234C6.01709 10.6152 6.07178 10.7466 6.07178 10.9175V11.6807C6.07178 11.7012 6.07178 11.7212 6.07178 11.7407C6.07275 11.7603 6.07422 11.7798 6.07617 11.7993L6.22998 11.8154V12H5.81543C5.79883 11.9199 5.78857 11.8472 5.78467 11.7817C5.729 11.853 5.65918 11.9126 5.5752 11.9604C5.49219 12.0073 5.40332 12.0308 5.30859 12.0308ZM5.35107 11.7891C5.44678 11.7891 5.53418 11.7661 5.61328 11.7202C5.69238 11.6743 5.74902 11.6191 5.7832 11.5547V11.2676H5.49023C5.35742 11.2676 5.25781 11.2993 5.19141 11.3628C5.125 11.4263 5.0918 11.4971 5.0918 11.5752C5.0918 11.7178 5.17822 11.7891 5.35107 11.7891ZM7.01367 12.0249C6.89648 12.0249 6.80322 11.9907 6.73389 11.9224C6.66553 11.853 6.63135 11.7427 6.63135 11.5913V10.6289H6.38086V10.415H6.63135V10.0327H6.91992V10.415H7.26416V10.6289H6.91992V11.5913C6.91992 11.6675 6.93506 11.7236 6.96533 11.7598C6.99561 11.7959 7.03613 11.814 7.08691 11.814C7.12109 11.814 7.15918 11.811 7.20117 11.8052C7.24316 11.7983 7.27588 11.7925 7.29932 11.7876L7.33887 11.9766C7.29688 11.9893 7.24512 12.0005 7.18359 12.0103C7.12305 12.02 7.06641 12.0249 7.01367 12.0249ZM7.51318 12V11.8154L7.75195 11.7744V10.6421L7.51318 10.6011V10.415H8.04053V11.7744L8.2793 11.8154V12H7.51318ZM7.7373 10.0239V9.71484H8.04053V10.0239H7.7373ZM8.47852 12V11.8154L8.71729 11.7744V10.6421L8.47852 10.6011V10.415H8.9751L8.99561 10.6509C9.04834 10.5669 9.11426 10.502 9.19336 10.4561C9.27344 10.4092 9.36426 10.3857 9.46582 10.3857C9.63672 10.3857 9.76904 10.436 9.86279 10.5366C9.95654 10.6362 10.0034 10.7905 10.0034 10.9995V11.7744L10.2422 11.8154V12H9.47607V11.8154L9.71484 11.7744V11.0054C9.71484 10.8657 9.68701 10.7666 9.63135 10.708C9.57666 10.6494 9.49268 10.6201 9.37939 10.6201C9.29639 10.6201 9.22266 10.6401 9.1582 10.6802C9.09473 10.7202 9.04395 10.7749 9.00586 10.8442V11.7744L9.24463 11.8154V12H8.47852ZM11.1284 12.6401C11.0522 12.6401 10.9697 12.6294 10.8809 12.6079C10.792 12.5874 10.7139 12.5591 10.6465 12.5229L10.7212 12.2988C10.7749 12.3271 10.8384 12.3506 10.9116 12.3691C10.9849 12.3877 11.0562 12.397 11.1255 12.397C11.2544 12.397 11.3486 12.3608 11.4082 12.2886C11.4688 12.2163 11.499 12.1133 11.499 11.9795V11.8286C11.3936 11.9634 11.2485 12.0308 11.064 12.0308C10.9351 12.0308 10.8237 11.999 10.73 11.9355C10.6362 11.8711 10.564 11.7817 10.5132 11.6675C10.4634 11.5522 10.4385 11.4189 10.4385 11.2676V11.2368C10.4385 11.0669 10.4634 10.918 10.5132 10.79C10.564 10.6621 10.6362 10.563 10.73 10.4927C10.8237 10.4214 10.936 10.3857 11.0669 10.3857C11.2632 10.3857 11.4136 10.4619 11.5181 10.6143L11.5444 10.415H11.9839V10.5996L11.7876 10.6421V11.9795C11.7876 12.1846 11.7305 12.3457 11.6162 12.4629C11.502 12.5811 11.3394 12.6401 11.1284 12.6401ZM11.1357 11.7964C11.2227 11.7964 11.2954 11.7769 11.354 11.7378C11.4126 11.6978 11.4609 11.6416 11.499 11.5693V10.8398C11.4619 10.7725 11.4136 10.7192 11.354 10.6802C11.2944 10.6401 11.2227 10.6201 11.1387 10.6201C11.001 10.6201 10.8979 10.6777 10.8296 10.793C10.7612 10.9082 10.7271 11.0562 10.7271 11.2368V11.2676C10.7271 11.4268 10.7607 11.5547 10.8281 11.6514C10.8955 11.748 10.998 11.7964 11.1357 11.7964ZM13.3887 12.0308C13.2236 12.0308 13.0981 11.9907 13.0122 11.9106C12.9263 11.8296 12.8833 11.7158 12.8833 11.5693C12.8833 11.4189 12.9448 11.2983 13.0679 11.2075C13.1909 11.1157 13.3618 11.0698 13.5806 11.0698H13.8633V10.9146C13.8633 10.8188 13.834 10.7446 13.7754 10.6919C13.7178 10.6392 13.6362 10.6128 13.5308 10.6128C13.4644 10.6128 13.4067 10.6211 13.3579 10.6377C13.3091 10.6533 13.2646 10.6753 13.2246 10.7036L13.1938 10.9248H12.9712V10.5615C13.1147 10.4443 13.3027 10.3857 13.5352 10.3857C13.7275 10.3857 13.8784 10.4316 13.9878 10.5234C14.0972 10.6152 14.1519 10.7466 14.1519 10.9175V11.6807C14.1519 11.7012 14.1519 11.7212 14.1519 11.7407C14.1528 11.7603 14.1543 11.7798 14.1562 11.7993L14.3101 11.8154V12H13.8955C13.8789 11.9199 13.8687 11.8472 13.8647 11.7817C13.8091 11.853 13.7393 11.9126 13.6553 11.9604C13.5723 12.0073 13.4834 12.0308 13.3887 12.0308ZM13.4312 11.7891C13.5269 11.7891 13.6143 11.7661 13.6934 11.7202C13.7725 11.6743 13.8291 11.6191 13.8633 11.5547V11.2676H13.5703C13.4375 11.2676 13.3379 11.2993 13.2715 11.3628C13.2051 11.4263 13.1719 11.4971 13.1719 11.5752C13.1719 11.7178 13.2583 11.7891 13.4312 11.7891ZM15.9976 12.0308C15.854 12.0308 15.729 11.9976 15.6226 11.9312C15.5161 11.8638 15.4336 11.7705 15.375 11.6514C15.3164 11.5322 15.2871 11.3945 15.2871 11.2383V11.1768C15.2871 11.0264 15.3154 10.8916 15.3721 10.7725C15.4287 10.6533 15.5103 10.5591 15.6167 10.4897C15.7231 10.4204 15.8501 10.3857 15.9976 10.3857C16.1255 10.3857 16.2373 10.4067 16.333 10.4487C16.4297 10.4907 16.5107 10.5483 16.5762 10.6216L16.5835 11.0024H16.3579L16.3081 10.7256C16.2749 10.6914 16.2334 10.6641 16.1836 10.6436C16.1338 10.623 16.0752 10.6128 16.0078 10.6128C15.9219 10.6128 15.8462 10.6382 15.7808 10.689C15.7163 10.7397 15.666 10.8076 15.6299 10.8926C15.5938 10.9775 15.5757 11.0723 15.5757 11.1768V11.2383C15.5757 11.4121 15.6133 11.5503 15.6885 11.6528C15.7637 11.7544 15.8662 11.8052 15.9961 11.8052C16.0938 11.8052 16.1748 11.7783 16.2393 11.7246C16.3037 11.6709 16.3433 11.5972 16.3579 11.5034H16.6172L16.6201 11.5122C16.6152 11.603 16.5884 11.688 16.5396 11.7671C16.4907 11.8462 16.4209 11.9102 16.3301 11.959C16.2402 12.0068 16.1294 12.0308 15.9976 12.0308ZM17.543 12.0308C17.3711 12.0308 17.2368 11.9756 17.1401 11.8652C17.0435 11.7549 16.9951 11.583 16.9951 11.3496V10.6421L16.8135 10.6011V10.415H17.2837V11.3525C17.2837 11.5215 17.3086 11.6377 17.3584 11.7012C17.4082 11.7646 17.4858 11.7964 17.5913 11.7964C17.6938 11.7964 17.7783 11.7759 17.8447 11.7349C17.9121 11.6929 17.9629 11.6338 17.9971 11.5576V10.6421L17.7847 10.6011V10.415H18.2856V11.7744L18.4673 11.8154V12H18.0264L18.0073 11.7656C17.9575 11.8506 17.8931 11.916 17.814 11.9619C17.7358 12.0078 17.6455 12.0308 17.543 12.0308ZM18.6562 12V11.8154L18.895 11.7744V9.94189L18.6562 9.90088V9.71484H19.1836V11.7744L19.4224 11.8154V12H18.6562ZM20.1885 12.0249C20.0713 12.0249 19.978 11.9907 19.9087 11.9224C19.8403 11.853 19.8062 11.7427 19.8062 11.5913V10.6289H19.5557V10.415H19.8062V10.0327H20.0947V10.415H20.439V10.6289H20.0947V11.5913C20.0947 11.6675 20.1099 11.7236 20.1401 11.7598C20.1704 11.7959 20.2109 11.814 20.2617 11.814C20.2959 11.814 20.334 11.811 20.376 11.8052C20.418 11.7983 20.4507 11.7925 20.4741 11.7876L20.5137 11.9766C20.4717 11.9893 20.4199 12.0005 20.3584 12.0103C20.2979 12.02 20.2412 12.0249 20.1885 12.0249ZM21.3955 12.0308C21.2236 12.0308 21.0894 11.9756 20.9927 11.8652C20.896 11.7549 20.8477 11.583 20.8477 11.3496V10.6421L20.666 10.6011V10.415H21.1362V11.3525C21.1362 11.5215 21.1611 11.6377 21.2109 11.7012C21.2607 11.7646 21.3384 11.7964 21.4438 11.7964C21.5464 11.7964 21.6309 11.7759 21.6973 11.7349C21.7646 11.6929 21.8154 11.6338 21.8496 11.5576V10.6421L21.6372 10.6011V10.415H22.1382V11.7744L22.3198 11.8154V12H21.8789L21.8599 11.7656C21.8101 11.8506 21.7456 11.916 21.6665 11.9619C21.5884 12.0078 21.498 12.0308 21.3955 12.0308ZM22.5205 12V11.8154L22.7593 11.7744V10.6421L22.5205 10.6011V10.415H23.0171L23.042 10.6172L23.0449 10.645C23.0898 10.564 23.145 10.5005 23.2104 10.4546C23.2769 10.4087 23.3525 10.3857 23.4375 10.3857C23.4678 10.3857 23.4985 10.3887 23.5298 10.3945C23.562 10.3994 23.585 10.4043 23.5986 10.4092L23.5605 10.6772L23.3599 10.6655C23.2837 10.6606 23.2197 10.6782 23.168 10.7183C23.1162 10.7573 23.0762 10.8101 23.0479 10.8765V11.7744L23.2866 11.8154V12H22.5205ZM24.4673 12.0308C24.3208 12.0308 24.1934 11.9976 24.085 11.9312C23.9766 11.8638 23.8926 11.7705 23.833 11.6514C23.7744 11.5322 23.7451 11.3945 23.7451 11.2383V11.1738C23.7451 11.0234 23.7759 10.8892 23.8374 10.771C23.8999 10.6519 23.9824 10.5581 24.085 10.4897C24.1885 10.4204 24.3013 10.3857 24.4233 10.3857C24.6362 10.3857 24.7974 10.4502 24.9067 10.5791C25.0171 10.708 25.0723 10.8799 25.0723 11.0947V11.2749H24.0439L24.0396 11.2822C24.0425 11.4346 24.0811 11.5601 24.1553 11.6587C24.2295 11.7563 24.3335 11.8052 24.4673 11.8052C24.5649 11.8052 24.6504 11.7915 24.7236 11.7642C24.7979 11.7358 24.8618 11.6973 24.9155 11.6484L25.0283 11.8359C24.9717 11.8906 24.8965 11.937 24.8027 11.9751C24.71 12.0122 24.5981 12.0308 24.4673 12.0308ZM24.0527 11.0493H24.7837V11.0112C24.7837 10.8979 24.7534 10.8032 24.6929 10.7271C24.6323 10.6509 24.5425 10.6128 24.4233 10.6128C24.3267 10.6128 24.2441 10.6538 24.1758 10.7358C24.1074 10.8169 24.0654 10.9189 24.0498 11.042L24.0527 11.0493ZM26.7612 12.0308C26.6147 12.0308 26.4883 11.9966 26.3818 11.9282C26.2764 11.8589 26.1948 11.7637 26.1372 11.6426C26.0796 11.5205 26.0508 11.3813 26.0508 11.2251V11.1929C26.0508 11.0366 26.0796 10.8979 26.1372 10.7769C26.1948 10.6548 26.2764 10.5591 26.3818 10.4897C26.4883 10.4204 26.6138 10.3857 26.7583 10.3857C26.9048 10.3857 27.0308 10.4204 27.1362 10.4897C27.2427 10.5591 27.3247 10.6543 27.3823 10.7754C27.4399 10.8965 27.4688 11.0356 27.4688 11.1929V11.2251C27.4688 11.3823 27.4399 11.522 27.3823 11.644C27.3247 11.7651 27.2432 11.8599 27.1377 11.9282C27.0322 11.9966 26.9067 12.0308 26.7612 12.0308ZM26.7612 11.8052C26.8979 11.8052 27.002 11.7505 27.0732 11.6411C27.1445 11.5317 27.1802 11.3931 27.1802 11.2251V11.1929C27.1802 11.0815 27.1641 10.9824 27.1318 10.8955C27.1006 10.8076 27.0537 10.7388 26.9912 10.689C26.9287 10.6382 26.8511 10.6128 26.7583 10.6128C26.6665 10.6128 26.5894 10.6382 26.5269 10.689C26.4644 10.7388 26.4175 10.8076 26.3862 10.8955C26.355 10.9824 26.3394 11.0815 26.3394 11.1929V11.2251C26.3394 11.3931 26.3745 11.5317 26.4448 11.6411C26.5161 11.7505 26.6216 11.8052 26.7612 11.8052ZM27.6855 12V11.8154L27.9243 11.7744V10.6289H27.6768V10.415H27.9243V10.2144C27.9243 10.0454 27.9683 9.91504 28.0562 9.82324C28.145 9.73047 28.2686 9.68408 28.4268 9.68408C28.46 9.68408 28.4956 9.68701 28.5337 9.69287C28.5728 9.69775 28.6128 9.70508 28.6538 9.71484L28.6187 9.93457C28.6011 9.93066 28.5771 9.92725 28.5469 9.92432C28.5176 9.92139 28.4897 9.91992 28.4634 9.91992C28.2964 9.91992 28.2129 10.0181 28.2129 10.2144V10.415H28.5586V10.6289H28.2129V11.7744L28.4854 11.8154V12H27.6855ZM30.2124 12V11.8154L30.4512 11.7744V9.94189L30.2124 9.90088V9.71484H30.7397V10.626C30.7944 10.5498 30.8613 10.4907 30.9404 10.4487C31.0195 10.4067 31.1074 10.3857 31.2041 10.3857C31.374 10.3857 31.5059 10.4365 31.5996 10.5381C31.6934 10.6396 31.7402 10.7959 31.7402 11.0068V11.7744L31.979 11.8154V12H31.2129V11.8154L31.4517 11.7744V11.0039C31.4517 10.748 31.3398 10.6201 31.1162 10.6201C31.0371 10.6201 30.9648 10.6392 30.8994 10.6772C30.835 10.7144 30.7817 10.7651 30.7397 10.8296V11.7744L30.9785 11.8154V12H30.2124ZM32.8755 12.0308C32.729 12.0308 32.6016 11.9976 32.4932 11.9312C32.3848 11.8638 32.3008 11.7705 32.2412 11.6514C32.1826 11.5322 32.1533 11.3945 32.1533 11.2383V11.1738C32.1533 11.0234 32.1841 10.8892 32.2456 10.771C32.3081 10.6519 32.3906 10.5581 32.4932 10.4897C32.5967 10.4204 32.7095 10.3857 32.8315 10.3857C33.0444 10.3857 33.2056 10.4502 33.3149 10.5791C33.4253 10.708 33.4805 10.8799 33.4805 11.0947V11.2749H32.4521L32.4478 11.2822C32.4507 11.4346 32.4893 11.5601 32.5635 11.6587C32.6377 11.7563 32.7417 11.8052 32.8755 11.8052C32.9731 11.8052 33.0586 11.7915 33.1318 11.7642C33.2061 11.7358 33.27 11.6973 33.3237 11.6484L33.4365 11.8359C33.3799 11.8906 33.3047 11.937 33.2109 11.9751C33.1182 12.0122 33.0063 12.0308 32.8755 12.0308ZM32.4609 11.0493H33.1919V11.0112C33.1919 10.8979 33.1616 10.8032 33.1011 10.7271C33.0405 10.6509 32.9507 10.6128 32.8315 10.6128C32.7349 10.6128 32.6523 10.6538 32.584 10.7358C32.5156 10.8169 32.4736 10.9189 32.458 11.042L32.4609 11.0493ZM33.6914 12V11.8154L33.9302 11.7744V9.94189L33.6914 9.90088V9.71484H34.2188V11.7744L34.4575 11.8154V12H33.6914ZM34.6201 12.6094V12.4233L34.8442 12.3823V10.6421L34.6055 10.6011V10.415H35.0918L35.1182 10.6084C35.2266 10.46 35.3784 10.3857 35.5737 10.3857C35.7046 10.3857 35.8164 10.4214 35.9092 10.4927C36.002 10.563 36.0728 10.6621 36.1216 10.79C36.1704 10.917 36.1948 11.0659 36.1948 11.2368V11.2676C36.1948 11.4199 36.1699 11.5532 36.1201 11.6675C36.0713 11.7817 36.001 11.8711 35.9092 11.9355C35.8174 11.999 35.707 12.0308 35.5781 12.0308C35.3857 12.0308 35.2373 11.9658 35.1328 11.8359V12.3823L35.3848 12.4233V12.6094H34.6201ZM35.4888 11.8052C35.6255 11.8052 35.729 11.7554 35.7993 11.6558C35.8696 11.5562 35.9048 11.4268 35.9048 11.2676V11.2368C35.9048 11.0562 35.8696 10.9082 35.7993 10.793C35.729 10.6777 35.6245 10.6201 35.4858 10.6201C35.4038 10.6201 35.3335 10.6387 35.2749 10.6758C35.2163 10.7129 35.1689 10.7637 35.1328 10.8281V11.6001C35.1689 11.6655 35.2158 11.7163 35.2734 11.7524C35.332 11.7876 35.4038 11.8052 35.4888 11.8052ZM37.1997 12.0308C37.0532 12.0308 36.9258 11.9976 36.8174 11.9312C36.709 11.8638 36.625 11.7705 36.5654 11.6514C36.5068 11.5322 36.4775 11.3945 36.4775 11.2383V11.1738C36.4775 11.0234 36.5083 10.8892 36.5698 10.771C36.6323 10.6519 36.7148 10.5581 36.8174 10.4897C36.9209 10.4204 37.0337 10.3857 37.1558 10.3857C37.3687 10.3857 37.5298 10.4502 37.6392 10.5791C37.7495 10.708 37.8047 10.8799 37.8047 11.0947V11.2749H36.7764L36.772 11.2822C36.7749 11.4346 36.8135 11.5601 36.8877 11.6587C36.9619 11.7563 37.0659 11.8052 37.1997 11.8052C37.2974 11.8052 37.3828 11.7915 37.4561 11.7642C37.5303 11.7358 37.5942 11.6973 37.6479 11.6484L37.7607 11.8359C37.7041 11.8906 37.6289 11.937 37.5352 11.9751C37.4424 12.0122 37.3306 12.0308 37.1997 12.0308ZM36.7852 11.0493H37.5161V11.0112C37.5161 10.8979 37.4858 10.8032 37.4253 10.7271C37.3647 10.6509 37.2749 10.6128 37.1558 10.6128C37.0591 10.6128 36.9766 10.6538 36.9082 10.7358C36.8398 10.8169 36.7979 10.9189 36.7822 11.042L36.7852 11.0493ZM38.0273 12V11.8154L38.2661 11.7744V10.6421L38.0273 10.6011V10.415H38.5239L38.5488 10.6172L38.5518 10.645C38.5967 10.564 38.6519 10.5005 38.7173 10.4546C38.7837 10.4087 38.8594 10.3857 38.9443 10.3857C38.9746 10.3857 39.0054 10.3887 39.0366 10.3945C39.0688 10.3994 39.0918 10.4043 39.1055 10.4092L39.0674 10.6772L38.8667 10.6655C38.7905 10.6606 38.7266 10.6782 38.6748 10.7183C38.623 10.7573 38.583 10.8101 38.5547 10.8765V11.7744L38.7935 11.8154V12H38.0273ZM39.9229 12.0308C39.8164 12.0308 39.7168 12.02 39.624 11.9985C39.5312 11.9771 39.4326 11.9438 39.3281 11.8989L39.3252 11.5225H39.5435L39.5977 11.7495C39.7012 11.7925 39.8096 11.814 39.9229 11.814C40.04 11.814 40.124 11.7915 40.1748 11.7466C40.2256 11.7017 40.251 11.646 40.251 11.5796C40.251 11.5171 40.2251 11.4644 40.1733 11.4214C40.1226 11.3774 40.0298 11.3403 39.895 11.3101C39.7036 11.2661 39.5625 11.2075 39.4717 11.1343C39.3818 11.0601 39.3369 10.9614 39.3369 10.8384C39.3369 10.7524 39.3618 10.6758 39.4116 10.6084C39.4614 10.54 39.5308 10.4858 39.6196 10.4458C39.7085 10.4058 39.812 10.3857 39.9302 10.3857C40.0503 10.3857 40.1528 10.3994 40.2378 10.4268C40.3237 10.4541 40.3984 10.4907 40.4619 10.5366L40.4766 10.8984H40.2598L40.2129 10.6875C40.1787 10.6621 40.1382 10.6426 40.0913 10.6289C40.0444 10.6152 39.9907 10.6084 39.9302 10.6084C39.8403 10.6084 39.7671 10.6294 39.7104 10.6714C39.6548 10.7134 39.627 10.7661 39.627 10.8296C39.627 10.8667 39.6348 10.8989 39.6504 10.9263C39.667 10.9536 39.6982 10.9785 39.7441 11.001C39.79 11.0225 39.8574 11.0439 39.9463 11.0654C40.167 11.1172 40.3208 11.1831 40.4077 11.2632C40.4956 11.3433 40.5396 11.4419 40.5396 11.5591C40.5396 11.6929 40.4897 11.8052 40.3901 11.896C40.2915 11.9858 40.1357 12.0308 39.9229 12.0308Z" fill="white"/>
</svg>
